<svg width="102" height="102" viewBox="0 0 102 102" fill="none" xmlns="http://www.w3.org/2000/svg">
<path d="M12.75 76.5V51C12.75 40.8555 16.7799 31.1264 23.9532 23.9532C31.1264 16.7799 40.8555 12.75 51 12.75C61.1445 12.75 70.8736 16.7799 78.0468 23.9532C85.2201 31.1264 89.25 40.8555 89.25 51V76.5" stroke="#03C2EC" stroke-width="8.5" stroke-linecap="round" stroke-linejoin="round"/>
<path d="M86.7604 86.7604C88.3545 85.1663 89.25 83.0043 89.25 80.75V59.5H76.5C74.2457 59.5 72.0837 60.3955 70.4896 61.9896C68.8955 63.5837 68 65.7457 68 68V80.75C68 83.0043 68.8955 85.1663 70.4896 86.7604C72.0837 88.3545 74.2457 89.25 76.5 89.25H80.75C83.0043 89.25 85.1663 88.3545 86.7604 86.7604Z" stroke="#03C2EC" stroke-width="8.5" stroke-linecap="round" stroke-linejoin="round"/>
<path d="M15.2396 86.7604C13.6455 85.1663 12.75 83.0043 12.75 80.75V59.5H25.5C27.7543 59.5 29.9163 60.3955 31.5104 61.9896C33.1045 63.5837 34 65.7457 34 68V80.75C34 83.0043 33.1045 85.1663 31.5104 86.7604C29.9163 88.3545 27.7543 89.25 25.5 89.25H21.25C18.9957 89.25 16.8337 88.3545 15.2396 86.7604Z" stroke="#03C2EC" stroke-width="8.5" stroke-linecap="round" stroke-linejoin="round"/>
</svg>
