<svg width="50" height="50" viewBox="0 0 50 50" fill="none" xmlns="http://www.w3.org/2000/svg">
<path d="M14.5834 22.918L22.9167 4.16797C24.5744 4.16797 26.1641 4.82645 27.3362 5.99855C28.5083 7.17065 29.1667 8.76037 29.1667 10.418V18.7513H40.9584C41.5624 18.7445 42.1606 18.869 42.7117 19.1163C43.2627 19.3637 43.7534 19.7278 44.1498 20.1836C44.5461 20.6394 44.8386 21.1759 45.007 21.756C45.1754 22.3361 45.2157 22.9458 45.1251 23.543L42.2501 42.293C42.0994 43.2865 41.5947 44.1921 40.8291 44.843C40.0634 45.4938 39.0883 45.846 38.0834 45.8346H14.5834M14.5834 22.918V45.8346M14.5834 22.918H8.33341C7.22835 22.918 6.16854 23.357 5.38714 24.1384C4.60573 24.9198 4.16675 25.9796 4.16675 27.0846V41.668C4.16675 42.773 4.60573 43.8328 5.38714 44.6142C6.16854 45.3956 7.22835 45.8346 8.33341 45.8346H14.5834" stroke="#03C2EC" stroke-width="4.17" stroke-linecap="round" stroke-linejoin="round"/>
</svg>
