<svg width="50" height="50" viewBox="0 0 50 50" fill="none" xmlns="http://www.w3.org/2000/svg">
<path d="M25.0001 45.8346C36.506 45.8346 45.8334 36.5072 45.8334 25.0013C45.8334 13.4954 36.506 4.16797 25.0001 4.16797C13.4941 4.16797 4.16675 13.4954 4.16675 25.0013C4.16675 36.5072 13.4941 45.8346 25.0001 45.8346Z" stroke="#03C2EC" stroke-width="4.17" stroke-linecap="round" stroke-linejoin="round"/>
<path d="M18.9375 18.7502C19.4273 17.3579 20.3941 16.1838 21.6666 15.4359C22.9391 14.688 24.4352 14.4147 25.89 14.6642C27.3447 14.9137 28.6642 15.6701 29.6147 16.7992C30.5653 17.9284 31.0855 19.3575 31.0833 20.8335C31.0833 25.0002 24.8333 27.0835 24.8333 27.0835" stroke="#03C2EC" stroke-width="4.17" stroke-linecap="round" stroke-linejoin="round"/>
<path d="M25 35.418H25.0208" stroke="#03C2EC" stroke-width="4.17" stroke-linecap="round" stroke-linejoin="round"/>
</svg>
