<svg width="24" height="24" viewBox="0 0 24 24" fill="none" xmlns="http://www.w3.org/2000/svg">
<path d="M23.2727 11.9119V16.6433C23.2731 16.8543 23.2169 17.0618 23.1094 17.2464C23.0019 17.4309 22.8466 17.5864 22.6582 17.6981L12.3229 23.8128C12.1153 23.9351 11.8758 24 11.6314 24C11.387 24 11.1475 23.9351 10.9399 23.8128L0.616444 17.6943C0.427833 17.5828 0.272261 17.4273 0.164406 17.2428C0.0565516 17.0583 -2.98523e-05 16.8507 1.18183e-08 16.6396V11.9119C-3.13489e-05 11.6902 0.0623511 11.4726 0.180679 11.2816C0.299007 11.0906 0.468973 10.9331 0.672954 10.8255C0.876934 10.7179 1.1075 10.6641 1.34075 10.6696C1.574 10.6752 1.80144 10.7399 1.99949 10.8571L10.9399 16.1535C11.1475 16.2758 11.387 16.3407 11.6314 16.3407C11.8758 16.3407 12.1153 16.2758 12.3229 16.1535L21.2653 10.8571C21.4634 10.7373 21.6918 10.6704 21.9264 10.6636C22.1611 10.6567 22.3934 10.71 22.5989 10.818C22.8043 10.9259 22.9754 11.0845 23.0939 11.277C23.2125 11.4695 23.2743 11.6888 23.2727 11.9119Z" fill="#1D214E"/>
<path d="M10.9383 13.2688L1.76081 7.81102C1.57388 7.69908 1.41986 7.54397 1.31312 7.36018C1.20638 7.17639 1.15039 6.96991 1.15039 6.76C1.15039 6.5501 1.20638 6.34361 1.31312 6.15982C1.41986 5.97603 1.57388 5.82093 1.76081 5.70898L10.9344 0.193005C11.1431 0.0669478 11.3854 0 11.6328 0C11.8802 0 12.1224 0.0669478 12.3312 0.193005L21.5107 5.70898C21.6976 5.82093 21.8516 5.97603 21.9584 6.15982C22.0651 6.34361 22.1211 6.5501 22.1211 6.76C22.1211 6.96991 22.0651 7.17639 21.9584 7.36018C21.8516 7.54397 21.6976 7.69908 21.5107 7.81102L12.3253 13.2688C12.1173 13.3921 11.877 13.4575 11.6318 13.4575C11.3866 13.4575 11.1463 13.3921 10.9383 13.2688Z" fill="#1D214E"/>
</svg>
 